# xmcd CD database file
#
# Track frame offsets:
#	150
#	21905
#	39767
#	75900
#	100025
#	130125
#	156075
#	186825
#	205085
#	224765
#	236370
#
# Disc length: 3410 seconds
#
# Revision: 2
# Processed by: cddbd v1.4b42PL1 Copyright (c) Steve Scherf et al.
# Submitted via: CDex 1.40Beta8
#
DISCID=840d500b
DTITLE=Charlie Musselwhite - Continental Drifter
DYEAR=1999
DGENRE=Blues
TTITLE0=No
TTITLE1=Can´t Stay Away From You
TTITLE2=Voodoo Garden
TTITLE3=Litle Star
TTITLE4=Que te parece, Cholita? (What Do You Think, Cholita?)
TTITLE5=Chan Chan
TTITLE6=Sabroso
TTITLE7=Siboney
TTITLE8=My Time Someday
TTITLE9=Blues Up The River
TTITLE10=Please Remember Me
EXTD=YEAR: 1999 ID3G: 0
EXTT0=
EXTT1=
EXTT2=
EXTT3=
EXTT4=
EXTT5=
EXTT6=
EXTT7=
EXTT8=
EXTT9=
EXTT10=
PLAYORDER=
